<svg width="65" height="65" viewBox="0 0 65 65" fill="none" xmlns="http://www.w3.org/2000/svg">
<circle cx="32.5" cy="32.5" r="32.5" fill="#D5F2E3"/>
<path d="M31.3839 40.195L32.1759 40.162C32.7039 40.162 33.0559 40.283 33.2319 40.525C33.4299 40.745 33.5289 41.152 33.5289 41.746C33.5289 42.318 33.3969 42.736 33.1329 43C32.8909 43.286 32.3959 43.429 31.6479 43.429C30.9219 43.429 30.4049 43.286 30.0969 43C29.8109 42.714 29.6679 42.087 29.6679 41.119C29.6679 40.151 29.8109 39.667 30.0969 39.667L30.4599 39.931C30.7019 40.107 31.0099 40.195 31.3839 40.195ZM27.8529 21.616C28.2929 21.176 28.9749 20.769 29.8989 20.395C30.8229 20.021 31.8679 19.834 33.0339 19.834C34.1999 19.834 35.1789 20.01 35.9709 20.362C36.7629 20.692 37.3459 21.077 37.7199 21.517C38.0939 21.957 38.3909 22.463 38.6109 23.035C38.8969 23.783 39.0399 24.564 39.0399 25.378C39.0399 26.192 38.8199 27.039 38.3799 27.919C37.9399 28.799 37.4119 29.536 36.7959 30.13C36.1799 30.724 35.5639 31.274 34.9479 31.78C33.4519 33.056 32.7039 34.156 32.7039 35.08C32.7039 35.608 32.8579 36.092 33.1659 36.532C33.4739 36.972 33.6279 37.203 33.6279 37.225C33.6279 37.423 33.4079 37.522 32.9679 37.522C32.7699 37.522 32.4179 37.445 31.9119 37.291C31.4279 37.115 31.0319 36.917 30.7239 36.697C30.4379 36.477 30.1739 36.147 29.9319 35.707C29.6899 35.245 29.5689 34.783 29.5689 34.321C29.5689 33.859 29.7339 33.518 30.0639 33.298C33.6279 30.768 35.4099 28.128 35.4099 25.378C35.4099 24.674 35.3109 24.025 35.1129 23.431C34.7389 22.243 34.0129 21.649 32.9349 21.649C31.8789 21.649 31.0649 22.067 30.4929 22.903C29.9429 23.739 29.6679 24.762 29.6679 25.972C29.6679 26.808 29.9099 27.523 30.3939 28.117C30.5699 28.315 30.6579 28.447 30.6579 28.513C30.6579 28.755 30.3609 28.876 29.7669 28.876C29.5029 28.876 29.1399 28.799 28.6779 28.645C28.2159 28.469 27.8309 28.26 27.5229 28.018C27.2369 27.776 26.9729 27.391 26.7309 26.863C26.4889 26.313 26.3679 25.829 26.3679 25.411C26.3679 24.971 26.3789 24.641 26.4009 24.421C26.4449 24.179 26.5879 23.761 26.8299 23.167C27.0939 22.573 27.4349 22.056 27.8529 21.616Z" fill="#003E1F"/>
</svg>
